<svg xmlns="http://www.w3.org/2000/svg" xmlns:xlink="http://www.w3.org/1999/xlink" width="500" zoomAndPan="magnify" viewBox="0 0 375 374.999991" height="500" preserveAspectRatio="xMidYMid meet" version="1.0"><defs><g/><clipPath id="id1"><path d="M 90 143.925781 L 119 143.925781 L 119 173 L 90 173 Z M 90 143.925781 " clip-rule="nonzero"/></clipPath><clipPath id="id2"><path d="M 57 171 L 131.925781 171 L 131.925781 245 L 57 245 Z M 57 171 " clip-rule="nonzero"/></clipPath><clipPath id="id3"><path d="M 57 170 L 131.925781 170 L 131.925781 245.175781 L 57 245.175781 Z M 57 170 " clip-rule="nonzero"/></clipPath></defs><path fill="#a3d53e" d="M 91.046875 171.824219 C 91.046875 171.824219 89.097656 144.578125 116.769531 144.707031 C 116.769531 144.707031 126.386719 172.339844 91.046875 171.824219 " fill-opacity="1" fill-rule="nonzero"/><g clip-path="url(#id1)"><path fill="#231f20" d="M 91.800781 171.054688 C 102.695312 171.089844 110.171875 168.386719 114.089844 163.007812 C 118.882812 156.421875 116.824219 147.691406 116.195312 145.484375 C 108.5 145.554688 102.488281 147.835938 98.320312 152.265625 C 92.105469 158.863281 91.765625 168.394531 91.800781 171.054688 M 92.015625 172.605469 C 91.691406 172.605469 91.363281 172.601562 91.035156 172.597656 C 90.628906 172.59375 90.296875 172.28125 90.269531 171.878906 C 90.234375 171.371094 89.472656 159.394531 97.179688 151.207031 C 101.726562 146.378906 108.25 143.929688 116.574219 143.929688 C 116.644531 143.929688 116.707031 143.929688 116.773438 143.929688 C 117.105469 143.933594 117.398438 144.140625 117.507812 144.453125 C 117.667969 144.910156 121.324219 155.714844 115.355469 163.914062 C 111.15625 169.683594 103.304688 172.605469 92.015625 172.605469 " fill-opacity="1" fill-rule="nonzero"/></g><path fill="#86af33" d="M 96.761719 170.863281 C 95.988281 170.816406 95.210938 170.792969 94.425781 170.792969 C 93.828125 170.792969 93.238281 170.804688 92.648438 170.832031 C 93.394531 169.757812 94.15625 168.730469 94.929688 167.757812 C 108.890625 164.042969 113.671875 149.714844 114.371094 145.542969 C 114.96875 145.507812 115.578125 145.488281 116.195312 145.484375 C 116.824219 147.691406 118.882812 156.421875 114.089844 163.007812 C 110.800781 167.527344 104.996094 170.15625 96.761719 170.863281 M 92.042969 168.988281 C 92.027344 168.785156 92.007812 168.574219 91.988281 168.355469 C 92.183594 168.328125 92.378906 168.296875 92.574219 168.265625 C 92.394531 168.503906 92.21875 168.746094 92.042969 168.988281 " fill-opacity="1" fill-rule="nonzero"/><path fill="#231f20" d="M 100.144531 171.222656 C 99.03125 171.054688 97.90625 170.933594 96.761719 170.863281 C 104.996094 170.15625 110.800781 167.527344 114.089844 163.007812 C 118.882812 156.421875 116.824219 147.691406 116.195312 145.484375 C 115.578125 145.488281 114.96875 145.507812 114.371094 145.542969 C 114.425781 145.222656 114.457031 144.957031 114.460938 144.765625 C 115.164062 144.730469 115.882812 144.707031 116.625 144.707031 C 116.675781 144.707031 116.722656 144.707031 116.769531 144.707031 C 116.769531 144.707031 124.605469 167.21875 100.144531 171.222656 " fill-opacity="1" fill-rule="nonzero"/><path fill="#231f20" d="M 91.046875 172.597656 C 90.898438 172.597656 90.753906 172.558594 90.625 172.472656 C 90.261719 172.242188 90.15625 171.761719 90.390625 171.402344 C 97.542969 160.386719 106.757812 154.257812 107.148438 154.003906 C 107.507812 153.765625 107.992188 153.863281 108.230469 154.222656 C 108.464844 154.578125 108.367188 155.058594 108.007812 155.296875 C 107.917969 155.355469 98.667969 161.511719 91.703125 172.242188 C 91.554688 172.472656 91.300781 172.597656 91.046875 172.597656 " fill-opacity="1" fill-rule="nonzero"/><path fill="#ffffff" d="M 94.945312 161.234375 C 94.867188 161.234375 94.785156 161.222656 94.707031 161.199219 C 94.296875 161.070312 94.070312 160.636719 94.199219 160.226562 C 94.320312 159.84375 97.3125 150.828125 108.867188 147.132812 C 109.277344 147.003906 109.714844 147.226562 109.847656 147.632812 C 109.980469 148.039062 109.753906 148.476562 109.34375 148.605469 C 98.546875 152.0625 95.714844 160.609375 95.6875 160.695312 C 95.582031 161.023438 95.273438 161.234375 94.945312 161.234375 " fill-opacity="1" fill-rule="nonzero"/><path fill="#a3d53e" d="M 91.308594 171.695312 C 91.308594 171.695312 92.75 151.542969 72.28125 151.636719 C 72.28125 151.636719 65.167969 172.078125 91.308594 171.695312 " fill-opacity="1" fill-rule="nonzero"/><path fill="#231f20" d="M 72.863281 152.417969 C 72.363281 154.238281 71.039062 160.410156 74.433594 165.0625 C 77.265625 168.949219 82.6875 170.917969 90.546875 170.925781 C 90.550781 168.742188 90.175781 162.027344 85.773438 157.359375 C 82.757812 154.160156 78.414062 152.5 72.863281 152.417969 M 90.589844 172.476562 C 82.171875 172.476562 76.3125 170.285156 73.164062 165.964844 C 68.6875 159.8125 71.425781 151.726562 71.546875 151.386719 C 71.652344 151.074219 71.945312 150.867188 72.277344 150.863281 C 78.566406 150.828125 83.492188 152.667969 86.917969 156.308594 C 92.683594 162.425781 92.113281 171.371094 92.085938 171.75 C 92.058594 172.152344 91.726562 172.464844 91.320312 172.472656 C 91.074219 172.476562 90.832031 172.476562 90.589844 172.476562 " fill-opacity="1" fill-rule="nonzero"/><path fill="#86af33" d="M 90.546875 170.925781 C 82.6875 170.917969 77.265625 168.949219 74.433594 165.0625 C 71.039062 160.410156 72.363281 154.238281 72.863281 152.417969 C 73.277344 152.421875 73.6875 152.4375 74.09375 152.460938 C 74.765625 156 78.808594 167.34375 90.472656 169.109375 C 90.535156 169.863281 90.546875 170.488281 90.546875 170.925781 " fill-opacity="1" fill-rule="nonzero"/><path fill="#231f20" d="M 86.90625 171.542969 C 66.003906 169.671875 72.28125 151.636719 72.28125 151.636719 C 72.3125 151.636719 72.347656 151.636719 72.378906 151.636719 C 72.933594 151.636719 73.464844 151.65625 73.988281 151.683594 C 73.996094 151.863281 74.027344 152.128906 74.09375 152.460938 C 73.6875 152.4375 73.277344 152.421875 72.863281 152.417969 C 72.363281 154.238281 71.039062 160.410156 74.433594 165.0625 C 77.265625 168.949219 82.6875 170.917969 90.546875 170.925781 C 90.546875 170.488281 90.535156 169.863281 90.472656 169.109375 C 90.738281 169.152344 91 169.183594 91.269531 169.214844 C 91.320312 169.910156 91.332031 170.492188 91.332031 170.917969 C 89.828125 171.039062 88.351562 171.25 86.90625 171.542969 " fill-opacity="1" fill-rule="nonzero"/><path fill="#231f20" d="M 91.308594 172.472656 C 91.054688 172.472656 90.800781 172.347656 90.652344 172.117188 C 85.515625 164.203125 78.71875 159.683594 78.652344 159.640625 C 78.292969 159.402344 78.191406 158.921875 78.429688 158.566406 C 78.667969 158.210938 79.152344 158.113281 79.511719 158.347656 C 79.796875 158.535156 86.652344 163.09375 91.964844 171.277344 C 92.195312 171.636719 92.09375 172.113281 91.730469 172.347656 C 91.601562 172.429688 91.453125 172.472656 91.308594 172.472656 " fill-opacity="1" fill-rule="nonzero"/><path fill="#ffffff" d="M 88.425781 164.066406 C 88.09375 164.066406 87.789062 163.855469 87.683594 163.527344 C 87.664062 163.464844 85.5625 157.226562 77.710938 154.714844 C 77.300781 154.585938 77.078125 154.148438 77.210938 153.742188 C 77.339844 153.335938 77.78125 153.113281 78.191406 153.242188 C 86.835938 156.007812 89.078125 162.769531 89.167969 163.058594 C 89.300781 163.464844 89.070312 163.902344 88.660156 164.027344 C 88.582031 164.054688 88.503906 164.066406 88.425781 164.066406 " fill-opacity="1" fill-rule="nonzero"/><g clip-path="url(#id2)"><path fill="#faba09" d="M 131.0625 207.980469 C 131.0625 228.089844 114.65625 244.394531 94.425781 244.394531 C 74.191406 244.394531 57.789062 228.089844 57.789062 207.980469 C 57.789062 187.867188 74.191406 171.566406 94.425781 171.566406 C 114.65625 171.566406 131.0625 187.867188 131.0625 207.980469 " fill-opacity="1" fill-rule="nonzero"/></g><g clip-path="url(#id3)"><path fill="#231f20" d="M 94.425781 172.339844 C 74.652344 172.339844 58.566406 188.328125 58.566406 207.980469 C 58.566406 227.632812 74.652344 243.621094 94.425781 243.621094 C 114.195312 243.621094 130.28125 227.632812 130.28125 207.980469 C 130.28125 188.328125 114.195312 172.339844 94.425781 172.339844 M 94.425781 245.167969 C 73.792969 245.167969 57.007812 228.484375 57.007812 207.980469 C 57.007812 187.472656 73.792969 170.792969 94.425781 170.792969 C 115.054688 170.792969 131.839844 187.472656 131.839844 207.980469 C 131.839844 228.484375 115.054688 245.167969 94.425781 245.167969 " fill-opacity="1" fill-rule="nonzero"/></g><path fill="#6b4d03" d="M 105.726562 184.800781 C 104.972656 184.800781 104.363281 184.195312 104.363281 183.445312 C 104.363281 182.695312 104.972656 182.089844 105.726562 182.089844 C 106.480469 182.089844 107.089844 182.695312 107.089844 183.445312 C 107.089844 184.195312 106.480469 184.800781 105.726562 184.800781 " fill-opacity="1" fill-rule="nonzero"/><path fill="#6b4d03" d="M 110.792969 188.09375 C 110.039062 188.09375 109.429688 187.488281 109.429688 186.738281 C 109.429688 185.988281 110.039062 185.382812 110.792969 185.382812 C 111.546875 185.382812 112.15625 185.988281 112.15625 186.738281 C 112.15625 187.488281 111.546875 188.09375 110.792969 188.09375 " fill-opacity="1" fill-rule="nonzero"/><path fill="#6b4d03" d="M 105.921875 189.644531 C 105.167969 189.644531 104.558594 189.035156 104.558594 188.289062 C 104.558594 187.539062 105.167969 186.929688 105.921875 186.929688 C 106.675781 186.929688 107.289062 187.539062 107.289062 188.289062 C 107.289062 189.035156 106.675781 189.644531 105.921875 189.644531 " fill-opacity="1" fill-rule="nonzero"/><path fill="#6b4d03" d="M 115.082031 192.355469 C 114.328125 192.355469 113.714844 191.75 113.714844 191 C 113.714844 190.25 114.328125 189.644531 115.082031 189.644531 C 115.835938 189.644531 116.445312 190.25 116.445312 191 C 116.445312 191.75 115.835938 192.355469 115.082031 192.355469 " fill-opacity="1" fill-rule="nonzero"/><path fill="#6b4d03" d="M 110.015625 192.9375 C 109.261719 192.9375 108.648438 192.328125 108.648438 191.578125 C 108.648438 190.832031 109.261719 190.226562 110.015625 190.226562 C 110.769531 190.226562 111.378906 190.832031 111.378906 191.578125 C 111.378906 192.328125 110.769531 192.9375 110.015625 192.9375 " fill-opacity="1" fill-rule="nonzero"/><path fill="#6b4d03" d="M 118.199219 196.035156 C 117.445312 196.035156 116.835938 195.429688 116.835938 194.679688 C 116.835938 193.929688 117.445312 193.324219 118.199219 193.324219 C 118.953125 193.324219 119.5625 193.929688 119.5625 194.679688 C 119.5625 195.429688 118.953125 196.035156 118.199219 196.035156 " fill-opacity="1" fill-rule="nonzero"/><path fill="#6b4d03" d="M 113.132812 196.421875 C 112.378906 196.421875 111.769531 195.816406 111.769531 195.066406 C 111.769531 194.316406 112.378906 193.710938 113.132812 193.710938 C 113.886719 193.710938 114.496094 194.316406 114.496094 195.066406 C 114.496094 195.816406 113.886719 196.421875 113.132812 196.421875 " fill-opacity="1" fill-rule="nonzero"/><path fill="#6b4d03" d="M 110.210938 199.519531 C 109.457031 199.519531 108.847656 198.914062 108.847656 198.167969 C 108.847656 197.417969 109.457031 196.808594 110.210938 196.808594 C 110.964844 196.808594 111.574219 197.417969 111.574219 198.167969 C 111.574219 198.914062 110.964844 199.519531 110.210938 199.519531 " fill-opacity="1" fill-rule="nonzero"/><path fill="#6b4d03" d="M 106.601562 195.746094 C 105.851562 195.746094 105.238281 195.136719 105.238281 194.386719 C 105.238281 193.640625 105.851562 193.03125 106.601562 193.03125 C 107.359375 193.03125 107.96875 193.640625 107.96875 194.386719 C 107.96875 195.136719 107.359375 195.746094 106.601562 195.746094 " fill-opacity="1" fill-rule="nonzero"/><path fill="#6b4d03" d="M 116.25 199.910156 C 115.496094 199.910156 114.886719 199.300781 114.886719 198.554688 C 114.886719 197.804688 115.496094 197.199219 116.25 197.199219 C 117.003906 197.199219 117.617188 197.804688 117.617188 198.554688 C 117.617188 199.300781 117.003906 199.910156 116.25 199.910156 " fill-opacity="1" fill-rule="nonzero"/><path fill="#6b4d03" d="M 120.148438 200.878906 C 119.394531 200.878906 118.785156 200.269531 118.785156 199.519531 C 118.785156 198.773438 119.394531 198.167969 120.148438 198.167969 C 120.902344 198.167969 121.511719 198.773438 121.511719 199.519531 C 121.511719 200.269531 120.902344 200.878906 120.148438 200.878906 " fill-opacity="1" fill-rule="nonzero"/><path fill="#ffffff" d="M 126.121094 207.335938 C 125.515625 207.335938 125.003906 206.867188 124.957031 206.253906 C 124.175781 195.285156 119.738281 187.113281 111.765625 181.96875 C 105.820312 178.128906 100.078125 177.503906 100.023438 177.5 C 99.378906 177.433594 98.910156 176.863281 98.976562 176.222656 C 99.042969 175.585938 99.613281 175.128906 100.261719 175.1875 C 100.511719 175.210938 125.292969 178.0625 127.289062 206.089844 C 127.335938 206.730469 126.851562 207.285156 126.207031 207.332031 C 126.179688 207.332031 126.152344 207.335938 126.121094 207.335938 " fill-opacity="1" fill-rule="nonzero"/><path fill="#08090a" d="M 86.667969 213.605469 C 85.183594 213.605469 83.9375 214.78125 83.933594 216.261719 L 83.933594 216.289062 C 83.933594 222.535156 88.476562 227.601562 94.078125 227.601562 C 99.675781 227.601562 104.21875 222.535156 104.21875 216.289062 L 104.21875 216.261719 C 104.214844 214.78125 102.96875 213.605469 101.480469 213.605469 L 86.667969 213.605469 " fill-opacity="1" fill-rule="nonzero"/><path fill="#f36518" d="M 97.277344 221.097656 C 93.582031 219.453125 88.820312 219.847656 84.621094 220.363281 C 86.085938 224.59375 89.761719 227.601562 94.078125 227.601562 C 96.679688 227.601562 99.046875 226.496094 100.84375 224.695312 C 100.066406 223.164062 98.964844 221.851562 97.277344 221.097656 " fill-opacity="1" fill-rule="nonzero"/><path fill="#f36518" d="M 81.261719 212.851562 C 81.261719 214.460938 79.28125 215.765625 76.835938 215.765625 C 74.390625 215.765625 72.410156 214.460938 72.410156 212.851562 C 72.410156 211.242188 74.390625 209.9375 76.835938 209.9375 C 79.28125 209.9375 81.261719 211.242188 81.261719 212.851562 " fill-opacity="1" fill-rule="nonzero"/><path fill="#f36518" d="M 116.105469 213.671875 C 116.105469 215.28125 114.121094 216.585938 111.679688 216.585938 C 109.234375 216.585938 107.25 215.28125 107.25 213.671875 C 107.25 212.0625 109.234375 210.757812 111.679688 210.757812 C 114.121094 210.757812 116.105469 212.0625 116.105469 213.671875 " fill-opacity="1" fill-rule="nonzero"/><path fill="#231f20" d="M 88.226562 206.417969 C 87.699219 206.417969 87.183594 206.152344 86.894531 205.667969 C 85.703125 203.699219 84.203125 202.371094 80.738281 202.300781 C 76.21875 202.214844 74.867188 205.328125 74.855469 205.359375 C 74.527344 206.144531 73.621094 206.523438 72.828125 206.199219 C 72.035156 205.875 71.65625 204.972656 71.980469 204.183594 C 72.070312 203.976562 74.171875 199.078125 80.800781 199.214844 C 84.875 199.296875 87.574219 200.796875 89.558594 204.078125 C 90 204.808594 89.757812 205.757812 89.023438 206.199219 C 88.773438 206.347656 88.5 206.417969 88.226562 206.417969 " fill-opacity="1" fill-rule="nonzero"/><path fill="#231f20" d="M 114.628906 206.519531 C 114.101562 206.519531 113.589844 206.253906 113.296875 205.769531 C 112.105469 203.800781 110.605469 202.472656 107.144531 202.402344 C 102.617188 202.320312 101.273438 205.429688 101.257812 205.460938 C 100.933594 206.25 100.023438 206.628906 99.230469 206.300781 C 98.4375 205.976562 98.058594 205.074219 98.386719 204.289062 C 98.472656 204.078125 100.574219 199.167969 107.207031 199.316406 C 111.277344 199.398438 113.980469 200.898438 115.960938 204.183594 C 116.402344 204.914062 116.164062 205.863281 115.429688 206.300781 C 115.179688 206.449219 114.902344 206.519531 114.628906 206.519531 " fill-opacity="1" fill-rule="nonzero"/><g fill="#99cc33" fill-opacity="1"><g transform="translate(150.944071, 221.167221)"><g><path d="M 22.960938 -27.367188 C 22.960938 -29.4375 21.636719 -30.539062 19.214844 -30.539062 L 7.050781 -30.539062 C 4.628906 -30.539062 3.304688 -29.21875 3.347656 -26.792969 C 3.347656 -22.960938 3.394531 -19.125 3.394531 -15.292969 C 3.394531 -11.457031 3.347656 -7.625 3.347656 -3.746094 C 3.304688 -1.320312 4.628906 0 7.050781 0 L 7.84375 0 C 10.269531 0 11.589844 -1.320312 11.546875 -3.746094 C 11.546875 -6.433594 11.546875 -9.078125 11.546875 -11.722656 C 13.574219 -11.679688 15.601562 -11.679688 17.539062 -11.632812 C 19.964844 -11.632812 21.285156 -12.691406 21.285156 -14.632812 C 21.285156 -16.527344 19.964844 -17.582031 17.539062 -17.582031 C 15.601562 -17.539062 13.574219 -17.539062 11.546875 -17.496094 L 11.546875 -24.238281 C 14.144531 -24.195312 16.835938 -24.195312 19.214844 -24.148438 C 21.636719 -24.148438 22.960938 -25.296875 22.960938 -27.367188 Z M 22.960938 -27.367188 "/></g></g></g><g fill="#99cc33" fill-opacity="1"><g transform="translate(175.707161, 221.167221)"><g><path d="M 5.507812 -12.648438 L 11.238281 -12.691406 C 13.484375 -12.691406 14.808594 -13.574219 15.203125 -15.46875 C 15.558594 -17.230469 14.191406 -18.246094 11.589844 -18.246094 L 5.859375 -18.246094 C 3.613281 -18.246094 2.292969 -17.277344 1.894531 -15.425781 C 1.542969 -13.660156 2.910156 -12.648438 5.507812 -12.648438 Z M 5.507812 -12.648438 "/></g></g></g><g fill="#99cc33" fill-opacity="1"><g transform="translate(192.803386, 221.167221)"><g><path d="M 12.914062 0.441406 C 20.84375 0.441406 24.945312 -2.730469 24.945312 -8.8125 C 24.945312 -19.390625 10.222656 -14.808594 10.222656 -21.945312 C 10.222656 -24.0625 11.0625 -25.472656 13.617188 -25.472656 C 15.734375 -25.472656 16.96875 -24.855469 17.363281 -23.003906 C 17.890625 -20.535156 18.597656 -19.214844 20.84375 -19.214844 C 23.09375 -19.214844 24.636719 -20.449219 24.457031 -22.871094 C 24.0625 -28.074219 20.625 -30.980469 13.75 -30.980469 C 6.65625 -30.980469 2.601562 -28.382812 2.601562 -21.769531 C 2.601562 -10.972656 16.660156 -14.410156 16.660156 -8.285156 C 16.660156 -6.476562 15.558594 -5.597656 13.175781 -5.597656 C 11.765625 -5.597656 10.753906 -5.859375 10.09375 -6.476562 C 8.59375 -8.109375 8.195312 -9.386719 6.082031 -9.386719 L 5.683594 -9.386719 C 3.4375 -9.386719 1.761719 -7.976562 2.425781 -5.554688 C 3.527344 -1.628906 7.050781 0.441406 12.914062 0.441406 Z M 12.914062 0.441406 "/></g></g></g><g fill="#99cc33" fill-opacity="1"><g transform="translate(219.46116, 221.167221)"><g><path d="M 27.324219 -15.292969 C 27.324219 -19.125 27.324219 -22.960938 27.324219 -26.792969 C 27.367188 -29.21875 26.046875 -30.539062 23.621094 -30.539062 L 22.785156 -30.539062 C 20.359375 -30.539062 19.039062 -29.21875 19.082031 -26.792969 C 19.125 -23.886719 19.125 -20.976562 19.125 -18.070312 L 11.546875 -18.070312 C 11.546875 -20.976562 11.546875 -23.886719 11.546875 -26.792969 C 11.589844 -29.21875 10.269531 -30.539062 7.84375 -30.539062 L 7.050781 -30.539062 C 4.628906 -30.539062 3.304688 -29.21875 3.347656 -26.792969 C 3.347656 -22.960938 3.394531 -19.125 3.394531 -15.292969 C 3.394531 -11.457031 3.347656 -7.625 3.347656 -3.746094 C 3.304688 -1.320312 4.628906 0 7.050781 0 L 7.84375 0 C 10.269531 0 11.589844 -1.320312 11.546875 -3.746094 C 11.546875 -6.523438 11.546875 -9.253906 11.546875 -11.988281 L 19.125 -11.988281 C 19.125 -9.253906 19.125 -6.523438 19.082031 -3.746094 C 19.039062 -1.320312 20.359375 0 22.785156 0 L 23.621094 0 C 26.046875 0 27.367188 -1.320312 27.324219 -3.746094 C 27.324219 -7.625 27.28125 -11.457031 27.324219 -15.292969 Z M 27.324219 -15.292969 "/></g></g></g><g fill="#99cc33" fill-opacity="1"><g transform="translate(250.128611, 221.167221)"><g><path d="M 15.160156 0.441406 C 23.796875 0.441406 28.074219 -4.804688 28.074219 -15.292969 C 28.074219 -25.738281 23.796875 -30.980469 15.160156 -30.980469 C 6.523438 -30.980469 2.203125 -25.738281 2.203125 -15.292969 C 2.203125 -4.804688 6.523438 0.441406 15.160156 0.441406 Z M 15.160156 -5.507812 C 11.679688 -5.507812 10.621094 -7.800781 10.621094 -15.292969 C 10.621094 -22.738281 11.679688 -25.03125 15.160156 -25.03125 C 18.640625 -25.03125 19.65625 -22.738281 19.65625 -15.292969 C 19.65625 -7.800781 18.640625 -5.507812 15.160156 -5.507812 Z M 15.160156 -5.507812 "/></g></g></g><g fill="#99cc33" fill-opacity="1"><g transform="translate(280.443562, 221.167221)"><g><path d="M 7.050781 0 L 7.84375 0 C 10.269531 0 11.589844 -1.320312 11.589844 -3.746094 C 11.546875 -5.554688 11.546875 -7.359375 11.546875 -9.167969 L 13.175781 -9.167969 C 21.945312 -9.167969 27.410156 -13.707031 27.410156 -20.933594 C 27.410156 -27.675781 23.578125 -30.539062 14.632812 -30.539062 L 7.050781 -30.539062 C 4.628906 -30.539062 3.304688 -29.21875 3.304688 -26.792969 C 3.347656 -22.960938 3.394531 -19.125 3.394531 -15.292969 C 3.394531 -11.414062 3.347656 -7.578125 3.304688 -3.746094 C 3.304688 -1.320312 4.628906 0 7.050781 0 Z M 11.546875 -15.425781 C 11.546875 -19.789062 11.546875 -22.125 11.589844 -24.457031 L 13.707031 -24.457031 C 17.363281 -24.457031 18.90625 -23.3125 18.90625 -20.582031 C 18.90625 -16.921875 17.1875 -15.425781 13.042969 -15.425781 Z M 11.546875 -15.425781 "/></g></g></g></svg>
